<?xml version="1.0" standalone="no"?>
<!DOCTYPE svg PUBLIC "-//W3C//DTD SVG 20010904//EN"
 "http://www.w3.org/TR/2001/REC-SVG-20010904/DTD/svg10.dtd">
<svg version="1.0" xmlns="http://www.w3.org/2000/svg"
 width="300.000000pt" height="300.000000pt" viewBox="0 0 300.000000 300.000000"
 preserveAspectRatio="xMidYMid meet">
<metadata>
Created by potrace 1.14, written by Peter Selinger 2001-2017
</metadata>
<g transform="translate(0.000000,300.000000) scale(0.100000,-0.100000)"
fill="#000000" stroke="none">
<path d="M2060 2580 c-129 -4 -505 -10 -835 -14 -560 -6 -602 -8 -625 -25
l-25 -18 1 -287 c0 -157 3 -288 5 -290 2 -2 35 -5 72 -7 l68 -4 -1 236 -1 237
303 6 c167 3 509 8 761 11 l457 6 0 -148 c0 -81 3 -473 7 -869 l6 -722 -124
-6 c-68 -3 -241 -8 -384 -11 -353 -7 -626 -14 -832 -21 l-172 -6 -3 184 c-2
100 -5 347 -6 547 -1 201 -4 366 -5 368 -2 1 -36 6 -76 9 l-74 7 8 -599 c7
-631 9 -644 53 -658 10 -4 380 3 823 14 442 11 823 20 847 20 33 0 49 6 69 26
l26 26 -6 652 c-4 358 -7 796 -7 974 l0 323 -25 24 c-13 14 -34 24 -47 23 -13
0 -129 -4 -258 -8z"/>
<path d="M2583 2444 l-25 -25 7 -980 8 -979 -352 -1 c-193 -1 -355 -3 -361 -4
-5 -1 -228 -3 -495 -4 l-486 -1 -24 -25 c-32 -31 -32 -69 0 -101 l26 -26 897
7 c897 7 897 7 921 29 l24 21 -7 710 c-3 391 -6 855 -6 1033 l0 323 -25 24
c-31 32 -69 32 -102 -1z"/>
<path d="M1856 2336 c-22 -24 -115 -94 -205 -156 l-164 -114 -262 132 c-144
73 -272 132 -284 132 -12 0 -33 -12 -48 -26 -21 -21 -24 -31 -19 -62 3 -20 6
-115 6 -210 0 -170 0 -173 25 -197 31 -32 69 -32 100 0 24 23 25 29 25 160 l0
135 193 -96 c105 -53 203 -105 216 -115 13 -11 34 -19 46 -19 12 0 101 54 196
120 l174 121 7 -38 c4 -21 7 -59 7 -84 1 -63 26 -93 76 -93 27 0 43 6 57 24
17 21 18 34 11 144 -4 67 -6 131 -5 144 6 85 6 85 -26 114 -46 40 -76 37 -126
-16z"/>
<path d="M1559 1643 c-15 -6 -32 -20 -38 -32 -17 -30 -13 -254 6 -351 10 -53
16 -144 17 -242 1 -154 2 -158 26 -182 l25 -24 200 6 200 7 52 33 c75 48 123
105 123 145 0 38 -33 115 -58 134 -9 7 -57 34 -105 60 -88 47 -89 48 -66 63
51 32 98 82 104 109 8 36 -8 75 -52 129 -39 48 -128 117 -176 137 -43 18 -222
23 -258 8z m216 -83 c45 -17 134 -90 162 -132 l27 -41 -34 -28 c-38 -32 -112
-63 -176 -73 l-42 -7 -11 64 c-12 70 -15 210 -4 220 9 10 48 8 78 -3z m163
-424 c160 -79 178 -119 87 -188 l-50 -38 -122 0 -123 0 0 118 c0 64 -3 127 -6
140 -6 21 -3 22 48 22 46 0 73 -9 166 -54z"/>
<path d="M844 1615 l-26 -26 7 -377 c8 -413 8 -413 67 -431 18 -5 51 -17 73
-25 56 -21 180 -20 253 2 127 40 232 141 232 224 0 83 -35 127 -139 175 l-73
33 25 20 c99 78 84 212 -33 305 -102 80 -166 105 -312 122 -41 4 -50 2 -74
-22z m265 -112 c85 -51 141 -112 141 -156 0 -63 -60 -112 -150 -122 -30 -3
-72 -8 -92 -10 l-38 -5 0 141 c0 118 3 144 18 164 24 33 47 31 121 -12z m131
-398 c36 -16 80 -39 98 -52 68 -50 31 -132 -90 -198 -43 -23 -68 -30 -135 -33
-45 -3 -93 -2 -107 2 l-26 6 0 156 0 156 98 -4 c79 -3 109 -9 162 -33z"/>
</g>
</svg>
