<svg id="Layer_1" data-name="Layer 1" xmlns="http://www.w3.org/2000/svg" viewBox="0 0 212.11 52.18"><defs><style>.cls-1{fill:#fff;}.cls-2{fill:#f7a600;}.cls-3{fill:#1ebadf;}.cls-4{fill:#962a86;}.cls-5{fill:#ff3c6a;}</style></defs><title>logoNew</title><path class="cls-1" d="M66,24.89l-1.16,2.78H60.17l6.47-16h4.77l6.34,16H73.08L72,24.89Zm3-8.29h0l-1.81,5.1h3.64Z"/><path class="cls-1" d="M93.75,27.67H88.3l-4.12-6.16h-.05v6.16H79.76v-16H86.3c3.32,0,5.84,1.5,5.84,4.92a4.36,4.36,0,0,1-3.68,4.53Zm-9.62-8.84h.42c1.43,0,3-.25,3-2s-1.61-2-3-2h-.42Z"/><polygon class="cls-1" points="105.28 11.66 110.71 11.66 104.01 19.24 111.31 27.67 105.64 27.67 100 20.72 99.95 20.72 99.95 27.67 95.58 27.67 95.58 11.66 99.95 11.66 99.95 18.26 100 18.26 105.28 11.66"/><polygon class="cls-1" points="119.55 22 119.59 22 123.12 11.66 126.6 11.66 129.9 22 129.94 22 133.11 11.66 137.66 11.66 132.29 27.67 127.82 27.67 124.88 18.39 124.83 18.39 121.53 27.67 117.09 27.67 112.07 11.66 116.62 11.66 119.55 22"/><path class="cls-1" d="M153.74,27.67H148.3l-4.13-6.16h0v6.16h-4.38v-16h6.54c3.33,0,5.85,1.5,5.85,4.92a4.37,4.37,0,0,1-3.68,4.53Zm-9.61-8.84h.42c1.43,0,3-.25,3-2s-1.61-2-3-2h-.42Z"/><rect class="cls-1" x="155.57" y="11.66" width="4.37" height="16.01"/><path class="cls-1" d="M180.23,18.73c0,2.33-.22,4.33-1.72,6.33a8.31,8.31,0,0,1-6.94,3.14c-5.29,0-9-3.42-9-8.45,0-5.2,3.71-8.62,9.13-8.62a7.84,7.84,0,0,1,7.58,4.48l-4.15,1.65a3.78,3.78,0,0,0-3.63-2.55c-2.88,0-4.38,2.62-4.38,5.06s1.57,5,4.44,5c1.9,0,3.35-.93,3.53-2.78h-3.57V18.73Z"/><polygon class="cls-1" points="193.57 17.84 193.57 11.66 197.95 11.66 197.95 27.67 193.57 27.67 193.57 21.11 187.26 21.11 187.26 27.67 182.89 27.67 182.89 11.66 187.26 11.66 187.26 17.84 193.57 17.84"/><polygon class="cls-1" points="208.49 27.67 204.12 27.67 204.12 15.18 200.5 15.18 200.5 11.66 212.11 11.66 212.11 15.18 208.49 15.18 208.49 27.67"/><path class="cls-1" d="M64.67,34.06H61.61v1.83h3V37h-3v2.54h3.06v1.08H60.46V33h4.21Z"/><path class="cls-1" d="M66.18,40.59V32.46l5.55,5.81V33h1.15v8.09l-5.55-5.8v5.33Z"/><path class="cls-1" d="M78.62,36.63h3.15v.25a5,5,0,0,1-.2,1.52,3.11,3.11,0,0,1-.67,1.14,3.42,3.42,0,0,1-2.69,1.2,3.71,3.71,0,0,1-2.74-1.16,3.82,3.82,0,0,1-1.14-2.78,4,4,0,0,1,4-4,4,4,0,0,1,1.67.36,4.82,4.82,0,0,1,1.45,1.19l-.82.78a2.77,2.77,0,0,0-2.28-1.25,2.72,2.72,0,0,0-2,.84,2.92,2.92,0,0,0,.09,4.15,2.73,2.73,0,0,0,1.85.76,2.31,2.31,0,0,0,1.53-.57,2,2,0,0,0,.75-1.38h-1.9Z"/><path class="cls-1" d="M84.37,33v7.62H83.22V33Z"/><path class="cls-1" d="M86.2,40.59V32.46l5.55,5.81V33H92.9v8.09l-5.55-5.8v5.33Z"/><path class="cls-1" d="M98.93,34.06H95.88v1.83h3V37h-3v2.54h3.05v1.08h-4.2V33h4.2Z"/><path class="cls-1" d="M104.65,34.06h-3.06v1.83h3V37h-3v2.54h3.06v1.08h-4.21V33h4.21Z"/><path class="cls-1" d="M108.74,37.35l2.35,3.24h-1.4l-2.18-3.12h-.21v3.12h-1.15V33h1.35a3.33,3.33,0,0,1,2.18.57,2.07,2.07,0,0,1,.74,1.67A2.16,2.16,0,0,1,110,36.6,2.09,2.09,0,0,1,108.74,37.35Zm-1.44-.88h.37c1.09,0,1.63-.41,1.63-1.25s-.53-1.16-1.59-1.16h-.41Z"/><path class="cls-1" d="M113.39,33v7.62h-1.15V33Z"/><path class="cls-1" d="M115.23,40.59V32.46l5.55,5.81V33h1.15v8.09l-5.55-5.8v5.33Z"/><path class="cls-1" d="M127.68,36.63h3.14v.25a5,5,0,0,1-.2,1.52,3.23,3.23,0,0,1-.66,1.14,3.45,3.45,0,0,1-2.7,1.2,3.71,3.71,0,0,1-2.74-1.16,4,4,0,0,1,2.84-6.75,3.92,3.92,0,0,1,1.67.36,4.82,4.82,0,0,1,1.45,1.19l-.82.78a2.77,2.77,0,0,0-2.28-1.25,2.72,2.72,0,0,0-2,.84,2.8,2.8,0,0,0-.82,2,2.87,2.87,0,0,0,2.77,2.86,2.3,2.3,0,0,0,1.52-.57,2.1,2.1,0,0,0,.76-1.38h-1.9Z"/><path class="cls-1" d="M139.69,34.11l-.93.55a1.54,1.54,0,0,0-.5-.59,1.09,1.09,0,0,0-.63-.16,1.19,1.19,0,0,0-.8.27.84.84,0,0,0-.31.67c0,.38.27.68.83.9l.76.31a3.24,3.24,0,0,1,1.35.92,2,2,0,0,1,.43,1.32,2.33,2.33,0,0,1-.7,1.74,2.4,2.4,0,0,1-1.75.69,2.31,2.31,0,0,1-1.64-.59,2.68,2.68,0,0,1-.79-1.65l1.16-.26a2,2,0,0,0,.28.93,1.3,1.3,0,0,0,1.93.13,1.26,1.26,0,0,0,.35-.91,1.25,1.25,0,0,0-.06-.4,1,1,0,0,0-.19-.35,1.66,1.66,0,0,0-.34-.29,4.37,4.37,0,0,0-.49-.26l-.74-.3a2.12,2.12,0,0,1-1.56-1.94,1.84,1.84,0,0,1,.65-1.43,2.38,2.38,0,0,1,1.64-.58A2.25,2.25,0,0,1,139.69,34.11Z"/><path class="cls-1" d="M146.91,33.38v1.37a3.19,3.19,0,0,0-2.07-.84,2.58,2.58,0,0,0-2,.85,2.84,2.84,0,0,0-.81,2.05,2.77,2.77,0,0,0,.81,2,2.67,2.67,0,0,0,2,.83,2.46,2.46,0,0,0,1-.2,3.45,3.45,0,0,0,.49-.27,5.32,5.32,0,0,0,.54-.4v1.38a4.18,4.18,0,0,1-2.07.56,3.83,3.83,0,0,1-2.79-1.14,3.75,3.75,0,0,1-1.15-2.77,3.93,3.93,0,0,1,1-2.6,3.83,3.83,0,0,1,3.06-1.39A3.91,3.91,0,0,1,146.91,33.38Z"/><path class="cls-1" d="M150,36h3.29V33h1.15v7.62H153.3V37H150v3.55h-1.15V33H150Z"/><path class="cls-1" d="M155.9,36.75A3.74,3.74,0,0,1,157.07,34a3.91,3.91,0,0,1,2.83-1.16,4,4,0,0,1,4,4,3.72,3.72,0,0,1-1.18,2.79,4,4,0,0,1-5.49.13A3.74,3.74,0,0,1,155.9,36.75Zm1.15,0a2.82,2.82,0,0,0,4.82,2.07,2.81,2.81,0,0,0,.83-2,2.77,2.77,0,0,0-.82-2,2.67,2.67,0,0,0-2-.83,2.74,2.74,0,0,0-2,.83A2.78,2.78,0,0,0,157.05,36.76Z"/><path class="cls-1" d="M166.61,33v6.54h2.24v1.08h-3.39V33Z"/><path class="cls-1" d="M175.31,38.74h-3.26l-.85,1.85H170l3.77-8.09,3.64,8.09h-1.26Zm-.47-1.08-1.13-2.59-1.18,2.59Z"/><path class="cls-1" d="M180.92,37.35l2.36,3.24h-1.41l-2.17-3.12h-.21v3.12h-1.15V33h1.35a3.37,3.37,0,0,1,2.18.57,2.1,2.1,0,0,1,.74,1.67,2.16,2.16,0,0,1-.47,1.39A2,2,0,0,1,180.92,37.35Zm-1.43-.88h.37c1.08,0,1.63-.41,1.63-1.25s-.53-1.16-1.59-1.16h-.41Z"/><path class="cls-1" d="M188.73,34.11l-.93.55a1.63,1.63,0,0,0-.5-.59,1.13,1.13,0,0,0-.64-.16,1.17,1.17,0,0,0-.79.27.85.85,0,0,0-.32.67c0,.38.28.68.83.9l.76.31a3.28,3.28,0,0,1,1.36.92,2,2,0,0,1,.43,1.32,2.37,2.37,0,0,1-.7,1.74,2.41,2.41,0,0,1-1.75.69,2.3,2.3,0,0,1-1.64-.59,2.69,2.69,0,0,1-.8-1.65l1.17-.26a2,2,0,0,0,.27.93,1.21,1.21,0,0,0,1,.5,1.16,1.16,0,0,0,.89-.37,1.23,1.23,0,0,0,.36-.91,1.25,1.25,0,0,0-.06-.4,1,1,0,0,0-.2-.35,1.59,1.59,0,0,0-.33-.29,4.58,4.58,0,0,0-.5-.26l-.73-.3a2.13,2.13,0,0,1-1.57-1.94,1.82,1.82,0,0,1,.66-1.43,2.36,2.36,0,0,1,1.63-.58A2.27,2.27,0,0,1,188.73,34.11Z"/><path class="cls-1" d="M191.46,36h3.29V33h1.15v7.62h-1.15V37h-3.29v3.55h-1.14V33h1.14Z"/><path class="cls-1" d="M198.88,33v7.62h-1.15V33Z"/><path class="cls-1" d="M201.85,37.5v3.09h-1.14V33H202a5.66,5.66,0,0,1,1.44.14,2,2,0,0,1,.87.5,2.17,2.17,0,0,1,.66,1.62,2.11,2.11,0,0,1-.7,1.66,2.77,2.77,0,0,1-1.89.61Zm0-1.07h.43c1.06,0,1.59-.4,1.59-1.22S203.32,34,202.23,34h-.38Z"/><path class="cls-1" d="M210.68,34.11l-.94.55a1.63,1.63,0,0,0-.49-.59,1.15,1.15,0,0,0-.64-.16,1.17,1.17,0,0,0-.79.27.82.82,0,0,0-.32.67c0,.38.28.68.83.9l.76.31a3.28,3.28,0,0,1,1.36.92,2.08,2.08,0,0,1,.42,1.32,2.33,2.33,0,0,1-.7,1.74,2.4,2.4,0,0,1-1.75.69,2.31,2.31,0,0,1-1.64-.59,2.68,2.68,0,0,1-.79-1.65l1.16-.26a2.08,2.08,0,0,0,.28.93,1.2,1.2,0,0,0,1,.5,1.17,1.17,0,0,0,.89-.37,1.22,1.22,0,0,0,.35-.91,1.25,1.25,0,0,0-.06-.4,1,1,0,0,0-.19-.35,1.66,1.66,0,0,0-.34-.29,4.37,4.37,0,0,0-.49-.26l-.74-.3a2.12,2.12,0,0,1-1.56-1.94,1.82,1.82,0,0,1,.66-1.43,2.34,2.34,0,0,1,1.63-.58A2.28,2.28,0,0,1,210.68,34.11Z"/><polygon class="cls-2" points="32.1 38.7 52.18 52.18 42.18 32.3 32.1 38.7"/><polygon class="cls-3" points="26.12 0 16.14 19.8 32.63 13.21 26.12 0"/><polygon class="cls-4" points="35.9 19.64 9.02 34.11 13.49 25.34 35.35 18.3 35.9 19.64"/><polygon class="cls-5" points="6.5 38.91 0 52.18 38.95 25.99 38.7 25.23 6.5 38.91"/></svg>